<svg id="Layer_1" data-name="Layer 1" xmlns="http://www.w3.org/2000/svg" viewBox="0 0 521.71 99.63"><defs><style>.cls-1{fill:#fff;}</style></defs><path class="cls-1" d="M89.84,71.23C89.84,88.16,76.41,98,50.66,98H0V0H47.86C72.35,0,84.94,10.22,84.94,25.47A23.56,23.56,0,0,1,71.93,47C82.84,50.52,89.84,58.91,89.84,71.23ZM22.53,17.07V40.16H45.06c11.06,0,17.07-3.92,17.07-11.61s-6-11.48-17.07-11.48ZM67,68.85c0-8.26-6.3-12.18-18.05-12.18H22.53V80.88H49C60.73,80.88,67,77.24,67,68.85Z"/><path class="cls-1" d="M289,47a23.55,23.55,0,0,0,13-21.55C302,10.22,289.4,0,264.92,0H107.06V98H267.72c25.74,0,39.18-9.79,39.18-26.72C306.9,58.91,299.9,50.52,289,47ZM129.59,17.07H262.12c11.05,0,17.07,3.78,17.07,11.48s-6,11.61-17.07,11.61H129.59ZM266,80.88H129.59V56.67H266c11.76,0,18.06,3.92,18.06,12.18S277.79,80.88,266,80.88Z"/><path class="cls-1" d="M324.11,54.85V0h22.67V54c0,18.61,8.12,26.3,21.83,26.3s21.83-7.69,21.83-26.3V0h22.39V54.85c0,28.83-16.51,44.78-44.36,44.78S324.11,83.68,324.11,54.85Z"/><path class="cls-1" d="M495.54,98,471.89,64,448.66,98h-26l36.25-49.81L424.45,0H450.2l22.53,31.76L494.84,0h24.49L485.18,47.3,521.71,98Z"/></svg>